<svg width="28" height="28" viewBox="0 0 49 48" fill="none" xmlns="http://www.w3.org/2000/svg">
<path d="M26.038 47.794H23.383C22.9013 47.7342 22.4196 47.6693 21.9367 47.6157C17.1426 47.0745 12.8277 45.3285 9.20054 42.202C1.97276 35.9665 -0.803558 28.1097 1.07387 18.8088C3.23196 8.12239 13.1387 0.149648 24.1934 0.00248926C29.1834 -0.0648544 33.8119 1.16853 37.965 3.91341C43.95 7.86923 47.5317 13.3789 48.6568 20.4163C48.7719 21.1359 48.8452 21.8617 48.9388 22.5838V25.2027C48.8338 26.0333 48.758 26.8676 48.6177 27.6969C47.6947 33.1418 45.1865 37.7586 41.0725 41.4949C37.5212 44.7579 33.0362 46.8613 28.2289 47.5184C27.4994 47.6232 26.7662 47.698 26.038 47.794ZM24.3401 32.7141C26.8547 32.5893 28.9824 32.517 31.1039 32.3674C32.023 32.3025 32.9686 32.1915 33.8359 31.9059C35.1495 31.4719 36.1116 30.6301 36.3746 29.1623C36.94 26.0194 36.9929 22.8075 36.5313 19.6481C36.4137 18.8413 36.3746 18.002 35.8448 17.3023C35.2957 16.5489 34.4948 16.0107 33.5831 15.7821C32.7558 15.5918 31.9145 15.4667 31.0672 15.408C26.336 15.0142 21.5777 15.0622 16.8556 15.5514C15.9567 15.6361 15.0991 15.9646 14.3777 16.5004C13.6755 16.9912 13.1984 17.7357 13.0502 18.5719C12.4819 21.7474 12.4238 24.9913 12.8783 28.1846C13.035 29.307 13.2196 30.4019 14.2184 31.1602C14.9769 31.7326 15.8063 32.1379 16.7532 32.209C19.4069 32.4073 22.0644 32.5656 24.3401 32.7141Z" fill="#FA8129"/>
<path d="M29.3464 23.8908L21.8582 28.4252V19.3575L29.3464 23.8908Z" fill="#FA8129"/>
</svg>
