<svg width="50" height="49" viewBox="0 0 50 49" fill="none" xmlns="http://www.w3.org/2000/svg">
<path d="M26.8506 49H23.0415C22.9567 48.8593 22.8105 48.913 22.6891 48.9015C19.6371 48.6286 16.6635 47.8024 13.9196 46.465C3.57326 41.3989 -1.83878 30.3739 0.565704 19.276C2.90101 8.49657 12.6821 0.426068 23.9187 0.0193453C28.8791 -0.160994 33.5276 0.914649 37.7622 3.45091C44.4457 7.45845 48.4331 13.2647 49.7246 20.8696C49.8212 21.4414 49.7898 22.0322 50 22.5873V26.4154C49.8877 26.4678 49.9112 26.5727 49.9021 26.6635C49.3995 31.9522 47.3919 36.6244 43.8139 40.6046C39.7759 45.1033 34.7233 47.8122 28.6559 48.7314C28.0555 48.8273 27.4367 48.8056 26.8506 49ZM39.1472 12.5766C38.8714 12.5976 38.6006 12.6601 38.3444 12.762L22.3471 18.4127L10.2437 22.6845C9.98262 22.7766 9.72155 22.8687 9.55316 23.1041C9.13022 23.6796 9.44873 24.3664 10.2476 24.5813C12.4863 25.185 14.725 25.7912 16.9703 26.3719C17.1029 26.3958 17.2256 26.4569 17.3236 26.5477C17.4216 26.6385 17.4906 26.7551 17.5224 26.8835C18.3357 29.2509 19.1646 31.6158 19.9896 33.9781C20.4099 35.1804 21.4111 35.4336 22.351 34.5703C23.4318 33.5778 24.5179 32.5904 25.5739 31.5749C25.8559 31.3025 26.0295 31.3191 26.3389 31.525C28.6015 33.0513 30.8746 34.5648 33.1581 36.0655C34.3082 36.8252 35.4569 36.389 35.7597 35.0781C37.3627 28.1535 38.9631 21.2286 40.5609 14.3032C40.7802 13.367 40.1275 12.5715 39.1472 12.5766Z" fill="#FEA633"/>
<path d="M19.0004 26.5922C18.989 26.1312 19.2533 25.9836 19.5188 25.8282C22.4965 24.0826 25.4737 22.3352 28.4505 20.5862L34.2271 17.1998C34.346 17.123 34.4733 17.0609 34.6065 17.0146C34.6751 16.9919 34.7496 16.9957 34.8157 17.0253C34.8818 17.0549 34.9352 17.1082 34.9656 17.1752C34.997 17.2322 35.0073 17.2988 34.9948 17.363C34.9823 17.4272 34.9477 17.4846 34.8973 17.5248C34.8075 17.6142 34.7089 17.6958 34.6115 17.7774C30.5126 21.209 26.4133 24.6381 22.3135 28.0646C22.1501 28.1867 22.0147 28.3437 21.9166 28.5249C21.8185 28.7061 21.7602 28.9069 21.7457 29.1135C21.6395 30.301 21.4827 31.4846 21.3385 32.6682C21.3234 32.7835 21.3613 32.9687 21.2121 32.9958C21.0085 33.0321 21.0211 32.8223 20.9794 32.698C20.3421 30.759 19.7068 28.82 19.0737 26.881C19.032 26.7593 19.0105 26.6324 19.0004 26.5922Z" fill="#FEA633"/>
</svg>
