<svg width="49" height="49" viewBox="0 0 49 49" fill="none" xmlns="http://www.w3.org/2000/svg">
<path d="M25.3856 49H23.6609C23.405 48.9616 23.1619 48.9181 22.9112 48.8874C21.9797 48.7774 21.0368 48.725 20.1156 48.5549C15.6375 47.7247 11.6712 45.8227 8.28574 42.7798C3.64261 38.6048 0.919933 33.4129 0.205998 27.1914C0.135628 26.5774 0.0690905 25.9635 0 25.3482V23.6253C0.0371042 23.3759 0.078046 23.1264 0.111312 22.8757C0.263567 21.7412 0.336499 20.59 0.578316 19.4759C2.05864 12.6442 5.78441 7.34494 11.7096 3.65858C17.0206 0.353397 22.8293 -0.68267 28.9707 0.430144C34.6668 1.46238 39.4404 4.22267 43.1637 8.65729C48.0998 14.5347 49.8782 21.328 48.6 28.8773C47.84 33.363 45.8748 37.3193 42.831 40.7102C38.6497 45.3623 33.4577 48.079 27.2306 48.7928L25.3856 49ZM24.554 12.1326C23.7326 12.2285 22.8984 12.2605 22.0923 12.4319C14.3401 14.0461 10.164 22.3206 13.4445 29.5322C13.5565 29.7909 13.5908 30.0767 13.543 30.3546C13.1835 32.2131 12.7907 34.064 12.4094 35.9174C12.2648 36.6235 12.5284 36.8793 13.2296 36.7143C15.0566 36.2832 16.8811 35.8432 18.7133 35.4352C18.9713 35.3837 19.2389 35.4114 19.481 35.5145C21.784 36.5186 24.1535 36.8422 26.628 36.4009C29.7587 35.8544 32.5528 34.1087 34.4164 31.5351C36.28 28.9614 37.0662 25.7626 36.6077 22.6186C35.7403 16.6491 30.6058 12.2068 24.554 12.1326Z" fill="#FEA633"/>
<path d="M15.6678 33.4458C15.8962 32.3493 16.0836 31.349 16.3185 30.3641C16.3813 30.1451 16.3998 29.9157 16.3727 29.6894C16.3455 29.4631 16.2734 29.2446 16.1606 29.0466C15.3464 27.55 14.9476 25.8625 15.0055 24.1595C15.0915 19.9221 18.3206 16.0275 22.4866 15.2018C27.8872 14.1309 32.8322 17.4143 33.8448 22.851C34.2915 25.2828 33.7651 27.7928 32.3791 29.8399C30.9931 31.8869 28.8585 33.307 26.4356 33.7938C24.155 34.2638 21.9873 33.9248 19.9338 32.8333C19.7696 32.7388 19.5879 32.6787 19.3997 32.6566C19.2115 32.6345 19.0207 32.651 18.8391 32.7049C17.8239 32.972 16.7946 33.1865 15.6678 33.4458ZM27.9886 30.4925C29.204 30.5862 30.1562 29.7516 30.9058 28.5844C31.3216 27.9359 31.0931 27.3093 30.359 27.0717C29.8739 26.9151 29.358 26.838 28.8921 26.639C27.977 26.2538 27.2352 26.3539 26.623 27.1937C26.3663 27.5481 25.9582 27.5866 25.5834 27.3812C24.0446 26.5452 22.7154 25.3708 21.696 23.9463C21.4662 23.6253 21.4893 23.2837 21.7191 22.964C21.868 22.756 22.0784 22.5788 22.1747 22.3489C22.2851 22.0921 22.4185 21.7416 22.3338 21.5066C22.024 20.6849 21.6723 19.8796 21.2801 19.0938C21.0543 18.6252 20.5101 18.4171 20.1033 18.6881C19.1484 19.3301 18.4014 20.1468 18.3219 21.3846C18.2359 22.7252 18.7069 23.9027 19.4359 24.98C20.6773 26.8188 22.3216 28.3502 24.2436 29.4575C25.3718 30.1377 26.6649 30.4952 27.9821 30.4912L27.9886 30.4925Z" fill="#FEA633"/>
</svg>
