<svg width="49" height="48" viewBox="0 0 49 48" fill="none" xmlns="http://www.w3.org/2000/svg">
<path d="M24.4289 47.794H23.8613C23.6489 47.7529 23.4377 47.6955 23.2291 47.6693C22.2278 47.567 21.2177 47.5334 20.2278 47.3713C14.3439 46.4135 9.45627 43.6673 5.64958 39.1603C1.02871 33.6905 -0.724822 27.3502 0.277736 20.3215C0.981929 15.393 3.12107 11.0693 6.6433 7.5063C12.6258 1.45534 19.942 -0.940344 28.3759 0.448931C34.9109 1.52518 40.107 4.90982 43.9339 10.2537C46.6309 13.9726 48.1369 18.4031 48.2577 22.9741C48.283 23.2186 48.3253 23.4611 48.3841 23.7V24.0741C48.3411 24.3472 48.2906 24.6191 48.2577 24.8922C48.0946 26.2141 48.0339 27.5572 47.752 28.8555C45.4763 39.5719 35.9185 47.3688 25.0724 47.6718C24.8549 47.6951 24.6397 47.736 24.4289 47.794ZM14.3553 17.5031V17.4969C13.8673 17.4969 13.378 17.4969 12.8887 17.4969C12.0202 17.4969 11.7281 17.9134 12.0998 18.6853C12.7901 20.117 13.4248 21.5849 14.2491 22.943C15.2023 24.5293 16.2226 26.1006 17.4009 27.5273C19.4351 29.9891 22.1646 31.0018 25.3657 30.7399C25.9473 30.6925 26.2773 30.3009 26.367 29.6786C26.4384 29.1563 26.5393 28.6384 26.6692 28.1272C26.7956 27.6383 27.1901 27.5036 27.6199 27.7842C27.8269 27.9264 28.0173 28.0908 28.1876 28.2743C28.7236 28.8218 29.2167 29.4167 29.7932 29.9193C30.1725 30.2497 30.6478 30.6339 31.1105 30.675C32.519 30.8067 33.9353 30.8376 35.3483 30.7673C36.2864 30.7149 36.5999 29.9292 36.1069 29.1261C35.815 28.645 35.4762 28.1931 35.0955 27.7767C34.3546 26.9711 33.5682 26.2066 32.7996 25.4247C32.3141 24.9259 32.28 24.6552 32.6415 24.0604C32.7311 23.9139 32.8282 23.7719 32.9323 23.6351C33.7162 22.5838 34.5354 21.5549 35.275 20.4737C35.6571 19.888 35.975 19.2638 36.2232 18.6118C36.4761 17.9982 36.2498 17.6864 35.5911 17.5442C35.4666 17.5163 35.3394 17.5017 35.2118 17.5006C33.9197 17.5006 32.6264 17.5006 31.333 17.5006C30.8172 17.5006 30.4632 17.7226 30.2736 18.1977C30.204 18.3711 30.132 18.5432 30.0599 18.7153C29.3621 20.3639 28.4708 21.8941 27.2191 23.1974C27.0927 23.3221 26.8474 23.468 26.7134 23.4281C26.5794 23.3882 26.4151 23.1388 26.3961 22.9679C26.3337 22.3675 26.3029 21.7644 26.3038 21.1608C26.3038 20.1968 26.3708 19.2328 26.3455 18.2713C26.3253 17.4894 25.9271 17.0828 25.1445 17.0404C23.951 16.9781 22.7525 16.9344 21.5578 16.9706C21.1153 16.983 20.6614 17.2063 20.248 17.4058C20.0988 17.4781 19.9951 17.7587 19.9863 17.9483C19.9863 18.0393 20.2518 18.1815 20.4187 18.2264C20.961 18.3711 21.3037 18.7377 21.3176 19.2465C21.3593 20.3689 21.3428 21.4838 21.2834 22.6C21.267 22.9168 21.0205 23.2236 20.8801 23.5341C20.5868 23.3233 20.2328 23.16 20.0116 22.8918C18.9419 21.5815 18.0859 20.1148 17.4742 18.5444C17.1872 17.8211 16.6689 17.5056 15.9116 17.5056L14.3553 17.5031Z" fill="#FDA531"/>
</svg>
