<svg width="50" height="50" viewBox="0 0 50 50" fill="none" xmlns="http://www.w3.org/2000/svg">
<path d="M26.8659 48.7736L24.2112 48.8105C23.7287 48.7573 23.2462 48.6992 22.7625 48.6523C17.9614 48.1778 13.6226 46.492 9.95233 43.4162C2.63854 37.2818 -0.246766 29.4644 1.50114 20.1383C3.51042 9.42291 13.3053 1.31317 24.3569 1.0123C29.3455 0.875573 33.9907 2.04448 38.1816 4.73134C44.221 8.60355 47.8789 14.0629 49.1019 21.084C49.2269 21.8019 49.3103 22.5266 49.4139 23.2473L49.4503 25.866C49.357 26.698 49.2927 27.5332 49.1639 28.3644C48.3168 33.8216 45.873 38.4728 41.8114 42.266C38.3058 45.578 33.8505 47.7436 29.0528 48.4675C28.3249 48.5824 27.5927 48.6674 26.8659 48.7736ZM24.9584 33.7187C27.4711 33.559 29.5976 33.4571 31.7168 33.2779C32.6349 33.2003 33.5789 33.0762 34.4422 32.7786C35.7496 32.3264 36.6999 31.4713 36.9424 29.9999C37.464 26.8494 37.4723 23.6371 36.9668 20.4845C36.8381 19.6793 36.7872 18.8406 36.2478 18.1484C35.6882 17.4028 34.8799 16.8757 33.9651 16.6598C33.1353 16.4811 32.2924 16.3677 31.4443 16.3207C26.7081 15.9928 21.9509 16.107 17.2361 16.6617C16.3384 16.759 15.4854 17.0993 14.7716 17.6452C14.0763 18.1456 13.6095 18.8967 13.473 19.7349C12.9489 22.9179 12.936 26.1624 13.4348 29.349C13.6071 30.4691 13.8069 31.5614 14.8161 32.3057C15.5826 32.8675 16.4175 33.2612 17.3653 33.3191C20.0215 33.4805 22.6809 33.6019 24.9584 33.7187Z" fill="#FEA733"/>
<path d="M29.8415 24.8266L22.4171 29.4648L22.291 20.3979L29.8415 24.8266Z" fill="#FDA531"/>
</svg>
