<svg width="73" height="72" viewBox="0 0 73 72" fill="none" xmlns="http://www.w3.org/2000/svg">
<rect x="0.333252" width="72" height="72" rx="16" fill="#FA8129"/>
<path d="M35.4673 15.7812C38.6107 15.5853 41.7156 16.5569 44.1867 18.5095C46.6578 20.4622 48.321 23.2585 48.8571 26.3621C49.1841 29.0252 48.677 31.7242 47.4058 34.087C45.8552 37.1966 43.8862 40.0793 41.5535 42.6547C40.2426 44.1529 38.7913 45.6042 37.4335 47.0556C37.3334 47.1911 37.2029 47.3013 37.0525 47.3772C36.9021 47.4531 36.7359 47.4926 36.5674 47.4926C36.3989 47.4926 36.2328 47.4531 36.0824 47.3772C35.9319 47.3013 35.8014 47.1911 35.7013 47.0556C32.2716 43.8119 29.2668 40.1465 26.7591 36.147C25.6594 34.3848 24.8529 32.4558 24.3713 30.4352C23.9923 28.7336 24.0061 26.9679 24.4117 25.2724C24.8174 23.5769 25.6041 21.9962 26.7122 20.6503C27.7226 19.2437 29.0314 18.0778 30.5449 17.2361C32.0584 16.3943 33.7393 15.8976 35.4673 15.7812ZM36.4973 32.4016C37.5909 32.4022 38.6418 31.9776 39.4281 31.2175C40.2144 30.4574 40.6744 29.4214 40.7108 28.3284C40.7364 27.2389 40.3342 26.1828 39.5903 25.3863C38.8464 24.5899 37.82 24.1167 36.7313 24.068C36.1802 24.0429 35.6295 24.1275 35.1114 24.3169C34.5932 24.5063 34.1178 24.7967 33.7127 25.1712C33.3077 25.5458 32.9812 25.997 32.7519 26.4988C32.5226 27.0006 32.3953 27.5429 32.3773 28.0943C32.3648 28.6477 32.4615 29.1981 32.6619 29.7141C32.8622 30.2301 33.1623 30.7015 33.5449 31.1015C33.9275 31.5015 34.385 31.8222 34.8916 32.0453C35.3982 32.2683 35.9439 32.3894 36.4973 32.4016Z" fill="white"/>
<path opacity="0.35" d="M41.6473 45.8384L43.4264 43.8252H43.7542C45.6486 44.2712 47.3923 45.2077 48.8104 46.5406C49.166 46.8439 49.4516 47.2207 49.6474 47.6451C49.8432 48.0694 49.9447 48.5312 49.9447 48.9986C49.9447 49.4659 49.8432 49.9277 49.6474 50.3521C49.4516 50.7764 49.166 51.1532 48.8104 51.4565C47.4996 52.7064 45.8862 53.5938 44.1287 54.0315C40.9482 55.0043 37.61 55.354 34.297 55.0615C31.8196 54.918 29.3831 54.3642 27.087 53.4229C25.998 52.9676 25.0111 52.299 24.1843 51.4565C23.8288 51.1532 23.5432 50.7764 23.3474 50.3521C23.1516 49.9277 23.05 49.4659 23.05 48.9986C23.05 48.5312 23.1516 48.0694 23.3474 47.6451C23.5432 47.2207 23.8288 46.8439 24.1843 46.5406C25.5038 45.3026 27.114 44.417 28.8661 43.9656C29.0491 43.8736 29.2593 43.8514 29.4575 43.9031C29.6557 43.9548 29.8282 44.0769 29.9429 44.2466C30.3876 44.8409 30.8725 45.404 31.3942 45.932L30.3175 46.5875C30.0217 46.7351 29.7729 46.9622 29.5989 47.2434C29.425 47.5246 29.3329 47.8487 29.3329 48.1793C29.3329 48.5099 29.425 48.8339 29.5989 49.1151C29.7729 49.3963 30.0217 49.6234 30.3175 49.771C31.3414 50.4725 32.509 50.9363 33.7351 51.1288C36.0268 51.5457 38.3844 51.4174 40.6173 50.7543C41.3871 50.5101 42.1139 50.1467 42.771 49.6774C43.0462 49.5356 43.2769 49.3208 43.438 49.0566C43.5991 48.7923 43.6843 48.4888 43.6843 48.1793C43.6843 47.8698 43.5991 47.5662 43.438 47.302C43.2769 47.0377 43.0462 46.8229 42.771 46.6811L41.6473 45.8384Z" fill="#FEFEFE"/>
</svg>
