<svg width="73" height="72" viewBox="0 0 73 72" fill="none" xmlns="http://www.w3.org/2000/svg">
<rect x="0.666672" width="72" height="72" rx="16" fill="#FEA633"/>
<path opacity="0.35" d="M19.83 27.5377C20.2493 30.66 21.8907 37.8357 28.3618 44.3068C34.833 50.7779 42.0068 52.4193 45.1309 52.8387C47.3937 53.3279 49.8473 52.7064 51.6058 50.9479C54.356 48.1978 44.3943 38.2361 41.6441 40.9862L39.8894 42.741L29.9277 32.7792L31.6805 31.0245C34.4307 28.2744 24.4689 18.3127 21.7188 21.0628C19.9603 22.8213 19.3389 25.2749 19.83 27.5377Z" fill="white"/>
<path d="M21.7248 21.0572L31.6846 31.017C34.4291 28.265 34.4291 23.8111 31.679 21.061C28.9326 18.3146 24.4769 18.3127 21.7248 21.0572Z" fill="white"/>
<path d="M41.6479 40.9805L51.6077 50.9403C54.3522 48.1901 54.3522 43.7344 51.602 40.9842C48.8538 38.2379 44.3999 38.236 41.6479 40.9805Z" fill="white"/>
</svg>
