<svg width="49" height="48" viewBox="0 0 49 48" fill="none" xmlns="http://www.w3.org/2000/svg">
<path d="M47.3123 22.808C47.3165 22.808 47.3197 22.808 47.3239 22.808C47.6186 22.808 47.8995 22.6861 48.0991 22.4725C48.3019 22.2558 48.4022 21.9651 48.3758 21.6712C47.3155 10.1647 38.082 1.05159 26.4184 0.00335788C26.1227 -0.0195656 25.8248 0.0752543 25.6052 0.276356C25.3855 0.476415 25.263 0.75879 25.2662 1.05367C25.4499 16.3457 27.4945 22.5944 47.3123 22.808ZM47.3123 24.9212C27.4945 25.1348 25.451 31.3835 25.2672 46.6755C25.264 46.9704 25.3865 47.2528 25.6062 47.4528C25.8027 47.631 26.0593 47.73 26.3233 47.73C26.355 47.73 26.3877 47.729 26.4194 47.7258C38.083 46.6776 47.3165 37.5655 48.3758 26.058C48.4022 25.7641 48.3029 25.4734 48.0991 25.2567C47.8953 25.0399 47.6112 24.9326 47.3123 24.9212ZM21.8908 0.00856787C10.2642 1.08701 1.06026 10.198 0.0052093 21.6733C-0.0211933 21.9672 0.0780806 22.2579 0.281909 22.4746C0.481512 22.6882 0.763492 22.8091 1.05709 22.8091C1.06131 22.8091 1.06554 22.8091 1.06976 22.8091C20.8221 22.5851 22.8614 16.3395 23.0473 1.05784C23.0504 0.762958 22.9269 0.479541 22.7072 0.279482C22.4854 0.0794222 22.1887 -0.0185235 21.8908 0.00856787ZM1.06871 24.9201C0.740258 24.8836 0.482568 25.0379 0.280853 25.2546C0.0780806 25.4713 -0.0222493 25.762 0.00415328 26.0559C1.0592 37.5311 10.2642 46.6422 21.8908 47.7206C21.9236 47.7238 21.9574 47.7248 21.9901 47.7248C22.2541 47.7248 22.5097 47.6268 22.7062 47.4487C22.9258 47.2486 23.0494 46.9652 23.0462 46.6703C22.8603 31.3897 20.8221 25.1441 1.06871 24.9201Z" fill="white"/>
</svg>
