<svg width="50" height="48" viewBox="0 0 50 48" fill="#FA8129" xmlns="http://www.w3.org/2000/svg">
<path d="M24.9916 48H24.6123C24.3548 47.9401 24.0933 47.8984 23.8298 47.8753C22.113 47.8362 20.4071 47.5942 18.7487 47.1545C6.90258 44.1228 -1.07997 32.6581 0.983308 20.2083C1.77347 15.4518 3.81778 11.274 7.19841 7.81705C13.1847 1.69252 20.5364 -0.73934 29.0284 0.657418C35.5634 1.73367 40.7595 5.12081 44.5864 10.4634C47.2839 14.1821 48.7899 18.6128 48.9102 23.1839C48.9355 23.4288 48.9778 23.6717 49.0366 23.9109V24.2851C48.9949 24.5432 48.9418 24.7989 48.9102 25.0583C48.7698 26.2892 48.7446 27.545 48.4829 28.7497C46.919 35.9505 42.8759 41.3916 36.3674 45.0007C33.1018 46.8184 29.4307 47.8098 25.6819 47.8865C25.4492 47.9071 25.2185 47.945 24.9916 48ZM29.0461 30.1664L29.1826 29.9818C29.3091 29.9369 29.4481 29.8995 29.5771 29.8459C30.8414 29.3209 32.1233 28.8482 33.3484 28.2509C34.5735 27.6535 34.9919 26.2779 34.3598 25.1655C33.7277 24.0531 32.3926 23.7064 31.165 24.3399C30.7187 24.5707 30.2712 24.8001 29.8097 24.9997C27.5657 25.9687 25.2432 26.3715 22.807 25.9238C21.2254 25.6357 19.7601 25.0508 18.3479 24.3025C17.1684 23.679 15.8118 24.0893 15.2151 25.2004C14.6184 26.3116 15.0014 27.6498 16.1911 28.2234C17.5021 28.857 18.8764 29.362 20.2228 29.9232L20.5364 30.0567C19.5389 31.0394 18.5818 31.9847 17.621 32.925C17.1924 33.3252 16.9362 33.8726 16.9054 34.454C16.8874 34.8922 17.0012 35.3258 17.2325 35.7004C17.4637 36.075 17.8021 36.3737 18.2051 36.5591C18.6292 36.759 19.1064 36.8221 19.569 36.7392C20.0315 36.6564 20.4558 36.4319 20.7816 36.0976C21.9726 34.9403 23.1458 33.7656 24.3216 32.597C24.7982 32.1256 24.7982 32.1269 25.2913 32.612C26.462 33.7681 27.6213 34.9353 28.8097 36.0727C29.7642 36.9881 31.1486 36.9843 32.0373 36.1051C32.9261 35.2259 32.9223 33.9102 32.0108 32.9612C31.3711 32.294 30.7111 31.6467 30.0436 31.0082C29.7351 30.7014 29.3811 30.4408 29.0461 30.1614V30.1664ZM31.2851 17.8762C31.4242 14.6075 28.6024 11.4573 24.8905 11.4474C23.17 11.4257 21.5109 12.077 20.276 13.2589C19.0412 14.4408 18.3311 16.057 18.3011 17.754C18.2228 20.974 20.7943 24.2963 24.8121 24.2826C28.9171 24.2701 31.3976 20.9079 31.2851 17.8762Z" fill="white"/>
<path d="M27.8993 17.8774C27.9512 19.4376 26.6894 20.9303 24.7766 20.9565C23.0509 20.979 21.6918 19.5486 21.7032 17.8288C21.7146 16.0828 23.08 14.7846 24.8967 14.7983C26.5693 14.8108 27.9082 16.1839 27.8993 17.8774Z" fill="white"/>
</svg>
