<svg width="48" height="48" viewBox="0 0 48 48" fill="none" xmlns="http://www.w3.org/2000/svg">
<circle cx="23.69" cy="23.69" r="23.69" fill="white"/>
<path fill-rule="evenodd" clip-rule="evenodd" d="M9 13.3831C9 12.7411 9.52047 12.2207 10.1625 12.2207H31.1444C32.515 12.2207 33.6754 12.3643 34.6431 12.6381C34.6569 12.6421 34.6707 12.6462 34.6843 12.6506C35.6797 12.9725 36.5255 13.4637 37.2801 14.1553C37.2965 14.1703 37.3124 14.1857 37.3278 14.2016C38.0375 14.9309 38.5586 15.7649 38.8628 16.7345C39.1539 17.662 39.3007 18.8054 39.3007 20.1707V21.8676C39.3007 24.1273 38.9096 26.0667 37.9118 27.3874L37.9117 27.3875C37.2379 28.2791 36.3106 28.9067 35.1963 29.315L39.7626 35.3155C40.0301 35.667 40.0753 36.1398 39.8791 36.5356C39.6829 36.9314 39.2793 37.1817 38.8375 37.1817H32.2984C31.9172 37.1817 31.5602 36.9949 31.343 36.6816L26.584 29.8174H17.1649V36.0193C17.1649 36.6613 16.6444 37.1817 16.0024 37.1817H10.1625C9.52047 37.1817 9 36.6613 9 36.0193V13.3831ZM11.325 14.5455V34.857H14.8399V28.655C14.8399 28.013 15.3603 27.4926 16.0024 27.4926H27.1927C27.5739 27.4926 27.9309 27.6795 28.148 27.9928L32.907 34.857H36.4921L32.2823 29.325C32.0342 28.999 31.9761 28.5665 32.1293 28.1865C32.2824 27.8066 32.6243 27.5353 33.0291 27.4725C34.596 27.2293 35.5299 26.6829 36.0567 25.986C36.5973 25.2705 36.9757 23.9518 36.9757 21.8676V20.1707C36.9757 18.9566 36.8432 18.0639 36.6444 17.4304C36.4618 16.8484 36.1509 16.3321 35.6846 15.8467C35.1919 15.4009 34.652 15.0864 33.9892 14.8692C33.2808 14.6714 32.3493 14.5455 31.1444 14.5455H11.325ZM14.8399 18.3719C14.8399 17.7299 15.3603 17.2095 16.0024 17.2095H30.2003C30.6616 17.2095 31.095 17.2479 31.4803 17.3369C31.852 17.4227 32.2607 17.5743 32.596 17.8591C33.2424 18.4078 33.4609 19.2525 33.4609 20.0688V21.9693C33.4609 22.8071 33.2485 23.6588 32.596 24.2127C32.2409 24.5142 31.8101 24.6524 31.447 24.7251C31.077 24.7992 30.6635 24.8271 30.2324 24.8284C30.2217 24.8286 30.211 24.8288 30.2003 24.8288H16.0024C15.3603 24.8288 14.8399 24.3084 14.8399 23.6664V18.3719ZM30.1699 22.504C30.18 22.5038 30.1901 22.5036 30.2003 22.5036C30.5618 22.5036 30.8187 22.48 30.9902 22.4456C31.028 22.4381 31.0577 22.4308 31.0804 22.4244C31.1051 22.3515 31.1359 22.2085 31.1359 21.9693V20.0688C31.1359 19.847 31.1053 19.7128 31.081 19.6448C31.08 19.6418 31.0789 19.639 31.0779 19.6364C31.0517 19.627 31.0124 19.6148 30.9569 19.602C30.7914 19.5637 30.5429 19.5343 30.2003 19.5343H17.1649V22.504H30.1699ZM31.0617 19.6006C31.0613 19.6001 31.0612 19.5998 31.0612 19.5998C31.0612 19.5998 31.0613 19.6001 31.0617 19.6006ZM31.0594 22.4742C31.0593 22.4742 31.0595 22.474 31.0598 22.4736C31.0595 22.474 31.0594 22.4742 31.0594 22.4742Z" fill="#ED3514"/>
<path d="M37.7857 13.0259C38.7857 13.0259 39.597 12.1246 39.597 11.0129C39.597 9.90109 38.7857 8.99988 37.7857 8.99988C36.7849 8.99988 35.9736 9.90109 35.9736 11.0129C35.9736 12.1246 36.7849 13.0259 37.7857 13.0259Z" fill="#ED3514"/>
</svg>
