<svg width="49" height="48" viewBox="0 0 49 48" fill="none" xmlns="http://www.w3.org/2000/svg">
<path d="M24.4294 47.794H23.8617C23.6493 47.7529 23.4382 47.6955 23.2296 47.6693C22.2283 47.567 21.2182 47.5334 20.2283 47.3713C14.3444 46.4135 9.45676 43.6674 5.65007 39.1603C1.02919 33.6905 -0.724334 27.3502 0.278225 20.3215C0.982418 15.393 3.12156 11.0693 6.64379 7.5063C12.6263 1.45534 19.9425 -0.940344 28.3764 0.448931C34.9114 1.52518 40.1075 4.90982 43.9344 10.2537C46.6314 13.9726 48.1374 18.4031 48.2582 22.9741C48.2835 23.2186 48.3258 23.4611 48.3846 23.7V24.0741C48.3416 24.3472 48.291 24.6191 48.2582 24.8922C48.0951 26.2141 48.0344 27.5572 47.7525 28.8555C45.4768 39.5719 35.919 47.3688 25.0729 47.6718C24.8554 47.6951 24.6402 47.736 24.4294 47.794ZM14.3558 17.5031V17.4969C13.8678 17.4969 13.3785 17.4969 12.8892 17.4969C12.0207 17.4969 11.7286 17.9134 12.1003 18.6853C12.7906 20.117 13.4253 21.5849 14.2496 22.943C15.2028 24.5293 16.2231 26.1006 17.4014 27.5273C19.4356 29.9891 22.1651 31.0018 25.3662 30.7399C25.9478 30.6925 26.2777 30.3009 26.3675 29.6786C26.4389 29.1563 26.5398 28.6384 26.6697 28.1272C26.7961 27.6383 27.1905 27.5036 27.6204 27.7842C27.8274 27.9264 28.0178 28.0908 28.188 28.2743C28.7241 28.8218 29.2172 29.4167 29.7937 29.9193C30.1729 30.2497 30.6483 30.6339 31.111 30.675C32.5195 30.8067 33.9358 30.8376 35.3488 30.7673C36.2869 30.7149 36.6004 29.9292 36.1074 29.1261C35.8154 28.645 35.4767 28.1931 35.096 27.7767C34.3551 26.9711 33.5687 26.2066 32.8001 25.4247C32.3146 24.9259 32.2804 24.6552 32.642 24.0604C32.7316 23.9139 32.8287 23.7719 32.9328 23.6351C33.7167 22.5838 34.5359 21.5549 35.2755 20.4737C35.6576 19.888 35.9755 19.2638 36.2237 18.6118C36.4765 17.9982 36.2502 17.6864 35.5916 17.5442C35.4671 17.5163 35.3399 17.5017 35.2123 17.5006C33.9202 17.5006 32.6269 17.5006 31.3335 17.5006C30.8177 17.5006 30.4637 17.7226 30.2741 18.1977C30.2045 18.3711 30.1325 18.5432 30.0604 18.7153C29.3625 20.3639 28.4712 21.8941 27.2196 23.1974C27.0932 23.3221 26.8479 23.468 26.7139 23.4281C26.5799 23.3882 26.4156 23.1388 26.3966 22.9679C26.3342 22.3675 26.3034 21.7644 26.3043 21.1608C26.3043 20.1968 26.3713 19.2328 26.346 18.2713C26.3258 17.4894 25.9276 17.0828 25.145 17.0404C23.9515 16.9781 22.753 16.9344 21.5583 16.9706C21.1158 16.983 20.6619 17.2063 20.2485 17.4058C20.0993 17.4781 19.9956 17.7587 19.9868 17.9483C19.9868 18.0393 20.2523 18.1815 20.4192 18.2264C20.9615 18.3711 21.3041 18.7377 21.3181 19.2465C21.3598 20.3689 21.3433 21.4838 21.2839 22.6C21.2675 22.9168 21.021 23.2236 20.8806 23.5341C20.5873 23.3233 20.2333 23.16 20.0121 22.8918C18.9424 21.5815 18.0864 20.1148 17.4747 18.5444C17.1877 17.8211 16.6694 17.5056 15.9121 17.5056L14.3558 17.5031Z" fill="white"/>
</svg>
