<svg width="1201" height="422" viewBox="0 0 1201 422" fill="none" xmlns="http://www.w3.org/2000/svg">
<g clip-path="url(#clip0_445_43)">
<path d="M263.038 0V241.154C263.038 286.469 225.645 316.816 187.324 316.816C134.959 316.816 111.766 272.559 111.766 241.154V55.8177C111.766 19.6897 93.7266 0 56.0246 0H0V206.445C0 349.925 68.1109 421.948 193.973 421.948C298.833 421.948 374.804 361.099 374.804 211.348V0H263.038ZM407.171 0V52.6177C407.225 65.495 411.965 77.911 420.504 87.5398C429.043 97.1687 440.794 103.35 453.558 104.926H553.933V413.613H665.673V105.055H794.293L752.261 0.129036L407.171 0ZM1090.47 0L1000.76 246.986L906.703 0H788.701L938.04 373.821C942.744 385.613 950.882 395.716 961.397 402.814C971.912 409.913 984.316 413.679 996.997 413.624C1009.68 413.568 1022.05 409.693 1032.5 402.502C1042.95 395.312 1051 385.138 1055.6 373.305L1201.03 0H1090.47Z" fill="url(#paint0_linear_445_43)"/>
</g>
<defs>
<linearGradient id="paint0_linear_445_43" x1="0" y1="211.013" x2="1201.03" y2="211.013" gradientUnits="userSpaceOnUse">
<stop stop-color="#FFAB33"/>
<stop offset="1" stop-color="#E8120B"/>
</linearGradient>
<clipPath id="clip0_445_43">
<rect width="1201" height="422" fill="white"/>
</clipPath>
</defs>
</svg>
